<?xml version="1.0" standalone="no"?>
<!DOCTYPE svg PUBLIC "-//W3C//DTD SVG 20010904//EN"
 "http://www.w3.org/TR/2001/REC-SVG-20010904/DTD/svg10.dtd">
<svg version="1.0" xmlns="http://www.w3.org/2000/svg"
 width="153.000000pt" height="153.000000pt" viewBox="0 0 153.000000 153.000000"
 preserveAspectRatio="xMidYMid meet">
<metadata>
Created by potrace 1.14, written by Peter Selinger 2001-2017
</metadata>
<g transform="translate(0.000000,153.000000) scale(0.100000,-0.100000)"
fill="#000000" stroke="none">
<path d="M174 1207 c10 -43 26 -303 26 -442 0 -131 -14 -331 -26 -373 -6 -22
-6 -22 106 -22 101 0 111 2 106 17 -14 36 -25 103 -32 194 -6 91 -5 98 15 118
53 53 92 -7 102 -159 4 -67 13 -119 23 -138 l17 -32 209 0 209 0 -7 33 c-4 17
-7 63 -7 100 0 62 3 71 27 92 14 12 43 26 65 29 59 11 83 31 83 70 0 39 -16
55 -85 88 -62 29 -77 56 -71 128 8 90 24 132 48 128 12 -2 30 -15 40 -29 34
-45 178 -537 178 -606 l0 -33 110 0 c61 0 110 2 110 4 0 3 -9 20 -19 38 -27
46 -92 212 -135 345 -48 150 -76 280 -83 386 l-6 87 -98 0 -99 0 -24 -47 c-33
-67 -76 -206 -83 -273 -4 -44 -1 -66 15 -102 21 -47 38 -62 106 -88 22 -8 39
-19 38 -25 0 -5 -25 -15 -55 -21 -110 -22 -190 -95 -241 -220 l-23 -57 -26 39
c-14 21 -37 76 -51 122 -34 109 -47 133 -98 176 -41 35 -41 36 -14 36 39 0
121 45 146 79 33 47 47 130 32 197 -15 74 -52 120 -120 152 -50 23 -70 25
-235 30 l-180 5 7 -26z m353 -72 c46 -52 39 -244 -12 -294 -20 -21 -34 -24
-92 -25 l-68 -1 2 124 c2 138 17 191 62 217 34 19 81 10 108 -21z"/>
</g>
</svg>
